<?xml version="1.0" standalone="no"?>
<!DOCTYPE svg PUBLIC "-//W3C//DTD SVG 20010904//EN"
 "http://www.w3.org/TR/2001/REC-SVG-20010904/DTD/svg10.dtd">
<svg version="1.0" xmlns="http://www.w3.org/2000/svg"
 width="960.000000pt" height="960.000000pt" viewBox="0 0 960.000000 960.000000"
 preserveAspectRatio="xMidYMid meet">
<metadata>
Created by potrace 1.11, written by Peter Selinger 2001-2013
</metadata>
<g transform="translate(0.000000,960.000000) scale(0.100000,-0.100000)"
fill="#000000" stroke="none">
<path d="M2645 7602 c-56 -27 -117 -78 -163 -137 -40 -51 -84 -135 -89 -169
-2 -11 -6 -22 -9 -25 -13 -13 -771 -3 -1018 13 -135 9 -243 18 -281 22 -22 2
-65 6 -95 8 -79 6 -171 16 -200 21 -14 3 -52 7 -85 10 -33 3 -71 8 -85 9 -14
2 -50 7 -81 11 l-56 7 6 -88 c3 -49 6 -276 5 -504 0 -376 -5 -541 -20 -715 -3
-33 -7 -85 -9 -115 -10 -136 -23 -273 -30 -310 -2 -14 -7 -54 -10 -90 -7 -68
-9 -88 -20 -158 -4 -24 -9 -60 -11 -80 -1 -20 -5 -46 -7 -57 -4 -18 -20 -115
-23 -140 -1 -11 -14 -96 -20 -135 -5 -35 -44 -250 -49 -277 -3 -13 -7 -35 -11
-50 -3 -16 -12 -59 -20 -98 -9 -38 -20 -89 -24 -112 -5 -23 -23 -92 -39 -155
-30 -112 -36 -141 -47 -208 -3 -19 -7 -46 -10 -60 -9 -54 -16 -203 -17 -360 0
-188 11 -478 19 -491 3 -5 -15 -9 -40 -9 -55 0 -58 -8 -71 -190 -3 -41 -8
-109 -11 -150 -12 -137 -13 -164 -18 -386 -6 -253 -11 -239 84 -292 73 -41
185 -77 295 -96 124 -21 148 -24 345 -41 288 -26 1067 -26 1805 0 55 2 190 6
300 9 110 3 259 8 330 11 72 3 207 7 300 10 94 3 229 7 300 10 341 12 643 17
1260 20 802 5 1232 16 1595 40 41 3 113 7 160 10 87 5 178 13 240 20 19 2 64
7 100 10 99 10 139 14 184 20 23 3 59 8 81 11 22 3 67 9 100 14 33 5 83 12
110 16 28 3 53 8 56 10 3 2 19 5 35 8 16 3 58 10 94 16 36 6 74 13 85 15 11 2
36 6 55 9 19 3 46 8 60 11 14 4 36 8 50 11 14 3 59 12 100 21 41 8 86 17 100
20 14 2 45 9 70 14 25 6 52 12 60 14 8 2 67 15 130 30 63 15 122 28 130 30 8
2 42 10 75 19 33 9 67 18 75 20 8 2 35 10 60 17 25 7 50 13 55 15 6 1 37 10
70 20 33 10 65 19 70 20 53 9 310 105 389 144 167 82 179 100 181 275 2 119
-20 279 -59 435 -9 36 -18 72 -20 80 -13 54 -51 129 -94 187 -27 38 -62 88
-76 111 -24 38 -31 43 -52 38 -21 -6 -33 1 -70 43 -137 152 -278 192 -689 193
-121 1 -263 -2 -315 -6 -213 -15 -234 -17 -238 -20 -2 -2 -19 0 -39 6 -19 5
-43 11 -52 13 -138 30 -155 38 -216 100 -89 90 -189 133 -326 139 -72 4 -193
-21 -233 -47 -31 -21 -121 5 -154 45 -79 94 -153 135 -312 175 -130 32 -190
31 -215 -5 l-15 -21 -84 29 c-59 20 -105 44 -153 81 -37 28 -69 57 -69 63 -1
6 -2 18 -3 27 -1 22 -47 66 -85 84 -71 32 -110 45 -154 51 -26 3 -49 7 -52 9
-3 1 -15 -1 -28 -6 -27 -10 -43 -47 -30 -71 5 -10 6 -18 3 -18 -4 0 -57 24
-119 53 l-112 54 -1 44 c-1 38 -6 49 -41 79 -23 21 -69 45 -111 60 -40 14 -75
28 -78 32 -8 14 -66 8 -84 -8 -17 -15 -23 -12 -94 36 -41 29 -78 57 -81 61 -3
5 0 18 6 30 28 51 -23 132 -121 196 -59 39 -86 45 -132 28 l-37 -13 -52 57
c-28 31 -85 98 -126 150 l-75 93 26 24 c14 13 28 33 32 44 9 28 -41 126 -92
180 -68 75 -124 96 -175 69 -23 -12 -148 154 -148 199 0 82 -124 257 -202 284
-23 8 -67 60 -148 178 -8 12 -41 56 -72 98 -31 42 -55 78 -54 79 1 2 15 4 30
5 58 5 65 49 23 136 -20 42 -55 90 -94 129 -64 64 -78 69 -144 48 -26 -8 -98
36 -150 92 -24 26 -71 68 -106 95 -53 40 -69 47 -96 43 -114 -16 -115 -16
-145 21 -15 20 -50 64 -78 99 -28 35 -61 80 -73 99 -47 75 -124 102 -196 68z"/>
</g>
</svg>
